<?xml version="1.0" encoding="UTF-8"?>
<svg width="230px" height="346px" viewBox="0 0 230 346" version="1.1" xmlns="http://www.w3.org/2000/svg" xmlns:xlink="http://www.w3.org/1999/xlink">
    <!-- Generator: Sketch 61.2 (89653) - https://sketch.com -->
    <title>icon</title>
    <desc>Created with Sketch.</desc>
    <g id="Page-1" stroke="none" stroke-width="1" fill="none" fill-rule="evenodd">
        <g id="logo-design-STEMinds" fill="#FFC51D" fill-rule="nonzero">
            <g id="icon">
                <g id="Group">
                    <path d="M1.3,140.83 C-1.92,110.11 6.15,78.15 24.25,53.07 C47.57,20.76 86.96,0.68 126.81,0.779628224 C167.82,0.88 204.71,21.79 229.34,53.76 C220.01,54.56 210.29,53.85 200.9,53.85 C182.95,35.06 160.57,24.95 134.45,23.03 C102.13,20.67 74.22,30.94 51.65,54.12 C14.19,92.58 12.42,155.44 47.51,195.88 C61.24,211.7 71.1,229.2 74.51,250.02 C75.08,253.51 75.6,257.08 75.53,260.6 C75.47,264.12 76.9,264.94 80.12,264.92 C95.43,264.8 110.75,264.87 126.06,264.87 C127.88,264.87 129.69,264.87 131.51,264.86 L131.51,264.93 L199.9,264.93 C199.81,270.93 200.06,276.95 199.91,282.95 C199.79,287.78 199.84,287.82 194.92,287.82 C192.39,287.82 189.85,287.82 187.32,287.82 C187.28,291.84 187.34,295.86 187.32,299.88 C187.31,304.72 187.26,304.79 183.25,304.79 C164.99,304.8 146.74,304.79 128.48,304.8 C109.92,304.8 91.36,304.74 72.81,304.860284 C69.95,304.88 68.79,303.85 68.96,300.27 C69.16,296.24 69,292.19 69,288.15 C69,288.04 69,287.95 69,287.84 C65.04,287.85 61.09,287.86 57.13,287.88 C53.71,287.9 52.6,286.71 52.68,283.42 C52.99,270.02 54.23,256.25 49.3,243.52 C44.48,231.06 36.27,220.25 28.84,209.27 C19.9,196.05 12,181.99 6.93,166.85 C4.09,158.42 2.23,149.67 1.3,140.83 Z" id="Path"></path>
                    <path d="M85.11,304.98 C98.69,304.97 112.26,304.98 125.84,304.98 C139.52,304.98 153.2,305.04 166.88,304.929618 C169.7,304.91 170.95,305.67 170.79,308.7 C170.58,312.54 170.58,316.41 170.79,320.25 C170.96,323.28 169.7,324.05 166.89,324.02 C162.57,323.98 158.24,323.96 153.92,323.96 C151.72,330.3 149.56,336.65 147.43,343.02 C146.81,344.87 145.82,345.66 143.8,345.650094 C132.23,345.57 120.67,345.56 109.1,345.61 C107.11,345.62 106.07,344.83 105.45,342.98 C103.32,336.63 101.11,330.31 98.93,323.97 C94.32,323.97 89.72,323.97 85.11,323.97 C81.05,323.97 80.96,323.87 80.95,319.95 C80.94,316.3 80.94,312.65 80.95,309.01 C80.96,305.06 81.04,304.98 85.11,304.98 Z" id="Path"></path>
                </g>
                <g id="Group" transform="translate(56.000000, 56.000000)">
                    <path d="M28.74,134.39 C24.67,130.33 20.66,126.21 16.52,122.22 C15,120.75 14.96,119.53 16.12,117.85 C18.82,113.93 21.35,109.89 24.04,105.95 C24.98,104.57 25.07,103.43 24.24,101.91 C22.76,99.21 21.3,96.43 20.69,93.41 C20.14,90.67 18.49,89.91 16.05,89.48 C11.44,88.67 6.89,87.56 2.29,86.64 C0.99,86.38 0.52,85.64 0.52,84.45 C0.55,78.21 0.34,71.97 0.62,65.74 C0.68,64.47 1.11,63.93 2.36,63.6 C6.9,62.42 11.56,61.79 16.13,60.77 C17.71,60.42 19.58,60.49 20.15,58.37 C21.11,54.76 22.69,51.39 24.43,48.11 C25.16,46.73 25.02,45.69 24.18,44.44 C21.42,40.38 18.81,36.23 16.03,32.18 C14.96,30.62 15.03,29.52 16.42,28.17 C20.55,24.17 24.63,20.13 28.59,15.97 C30.01,14.48 31.11,14.44 32.73,15.56 C36.87,18.44 41.13,21.15 45.29,24.01 C46.31,24.71 47.1,24.76 48.15,24.15 C51.49,22.19 55.1,20.84 58.79,19.7 C59.95,19.34 60.44,18.76 60.66,17.53 C61.59,12.37 62.67,7.23 63.7,2.08 C63.95,0.81 64.69,0.16 66.05,0.16 C72.29,0.18 78.53,0.18 84.77,0.17 C86.22,0.17 86.88,0.91 87.14,2.3 C88.12,7.53 89.18,12.74 90.15,17.97 C90.34,18.98 90.93,19.37 91.79,19.63 C95.43,20.71 98.94,22.1 102.24,23.98 C103.49,24.69 104.53,24.62 105.73,23.8 C109.84,20.99 114.03,18.31 118.13,15.48 C119.61,14.46 120.65,14.48 121.94,15.81 C126.04,20.04 130.21,24.2 134.42,28.32 C135.74,29.61 135.72,30.68 134.71,32.16 C131.89,36.26 129.23,40.47 126.45,44.6 C125.65,45.78 125.5,46.81 126.25,48.08 C127.93,50.93 129.31,53.96 130.08,57.15 C130.72,59.81 132.41,60.42 134.72,60.82 C139.19,61.6 143.63,62.61 148.09,63.5 C149.51,63.78 150.000153,64.56 149.99,66 C149.93,72.1 149.95,78.2 150.000153,84.3 C150.01,85.74 149.53,86.44 148.05,86.72 C143.44,87.59 138.88,88.65 134.27,89.5 C132.15,89.89 130.71,90.64 130.16,92.98 C129.44,96.05 128.09,98.95 126.55,101.69 C125.62,103.34 125.71,104.61 126.75,106.12 C129.45,110.04 132.02,114.05 134.7,117.99 C135.65,119.38 135.91,120.54 134.54,121.88 C130.23,126.1 125.98,130.38 121.76,134.68 C120.73,135.72 119.87,135.79 118.66,134.97 C114.47,132.16 110.18,129.5 106.02,126.65 C104.71,125.75 103.71,125.54 102.24,126.35 C99.12,128.08 95.88,129.61 92.37,130.47 C91.04,130.79 90.34,131.54 90.08,133.06 C89.22,138.09 88.12,143.08 87.12,148.09 C86.87,149.34 86.26,150.14 84.88,150.130093 C78.57,150.130093 72.26,150.12 65.95,150.130093 C64.69,150.130093 63.99,149.47 63.75,148.3 C62.71,143.23 61.61,138.18 60.74,133.08 C60.48,131.57 59.82,130.82 58.49,130.47 C54.87,129.52 51.47,128.06 48.24,126.2 C47.11,125.55 46.25,125.65 45.18,126.38 C41.54,128.88 37.84,131.29 34.15,133.71 C33.05,134.43 31.9,135.09 30.97,135.65 C29.74,135.6 29.28,134.93 28.74,134.39 Z M37.1193059,75.31 C37.25,96.61 54.22,113.65 75.51,113.48 C96.58,113.31 113.68,96.27 113.570528,75.18 C113.46,53.3 95.54,36.47 75.24,36.93 C55.14,36.51 36.99,53.23 37.1193059,75.31 Z" id="Shape"></path>
                    <circle id="Oval" cx="75.21" cy="75.2" r="17.28"></circle>
                </g>
            </g>
        </g>
    </g>
</svg>